<?xml version="1.0" encoding="UTF-8" standalone="no"?>
<!-- Created with Inkscape (http://www.inkscape.org/) -->

<svg
   xmlns:dc="http://purl.org/dc/elements/1.1/"
   xmlns:cc="http://creativecommons.org/ns#"
   xmlns:rdf="http://www.w3.org/1999/02/22-rdf-syntax-ns#"
   xmlns:svg="http://www.w3.org/2000/svg"
   xmlns="http://www.w3.org/2000/svg"
   xmlns:sodipodi="http://sodipodi.sourceforge.net/DTD/sodipodi-0.dtd"
   xmlns:inkscape="http://www.inkscape.org/namespaces/inkscape"
   width="50mm"
   height="50mm"
   viewBox="0 0 50 50"
   version="1.1"
   id="svg1364"
   inkscape:version="0.92.4 (5da689c313, 2019-01-14)"
   sodipodi:docname="2.svg">
  <defs
     id="defs1358" />
  <sodipodi:namedview
     id="base"
     pagecolor="#ffffff"
     bordercolor="#666666"
     borderopacity="1.0"
     inkscape:pageopacity="0.0"
     inkscape:pageshadow="2"
     inkscape:zoom="0.98994949"
     inkscape:cx="400"
     inkscape:cy="151.24886"
     inkscape:document-units="mm"
     inkscape:current-layer="g1274"
     showgrid="false"
     inkscape:window-width="1366"
     inkscape:window-height="705"
     inkscape:window-x="-8"
     inkscape:window-y="-8"
     inkscape:window-maximized="1" />
  <metadata
     id="metadata1361">
    <rdf:RDF>
      <cc:Work
         rdf:about="">
        <dc:format>image/svg+xml</dc:format>
        <dc:type
           rdf:resource="http://purl.org/dc/dcmitype/StillImage" />
        <dc:title></dc:title>
      </cc:Work>
    </rdf:RDF>
  </metadata>
  <g
     inkscape:label="Layer 1"
     inkscape:groupmode="layer"
     id="layer1"
     transform="translate(0,-247)">
    <g
       id="g1274"
       transform="matrix(1.0668507,0,0,1.0398472,-61.124894,192.64654)"
       style="stroke-width:0.949431;stroke-miterlimit:4;stroke-dasharray:none">
      <g
         id="g1282"
         transform="matrix(1.0415503,0,0,0.92939016,-53.611102,4.1149961)"
         style="display:inline;stroke-width:0.94217122;stroke-miterlimit:4;stroke-dasharray:none">
        <g
           transform="matrix(1.153293,0,0,1.0393979,96.25661,-2.1957683)"
           id="g4782-5-3"
           style="stroke-width:0.8605361;stroke-miterlimit:4;stroke-dasharray:none">
          <path
             id="rect4612-7-4-5-2-9"
             transform="matrix(0.22941554,0,0,0.25455442,-83.462407,2.1125387)"
             d="m 490.63672,292.33203 c -0.39529,-0.0194 -0.79416,-0.0112 -1.19336,0.0274 -6.38717,0.61726 -10.64043,8.58046 -9.53711,17.85351 l 2.92969,24.62695 c 0.26328,2.21279 0.81388,4.28745 1.57617,6.16602 -0.47614,1.86515 -0.7727,3.85605 -0.82422,5.92578 l -0.63477,25.47852 c -0.23881,9.59375 4.60451,16.98526 10.85938,16.57422 6.25487,-0.41105 11.48384,-8.46484 11.72266,-18.0586 l 0.63281,-25.47851 c 0.0504,-2.02433 -0.13624,-3.94111 -0.50391,-5.7168 0.42314,-2.19945 0.52932,-4.60745 0.23047,-7.11914 l -2.92969,-24.62695 c -1.03436,-8.69349 -6.39872,-15.36143 -12.32812,-15.65235 z"
             style="opacity:1;fill:#080000;fill-opacity:1;stroke:#ffffff;stroke-width:3.56096196;stroke-miterlimit:4;stroke-dasharray:none;stroke-opacity:1"
             inkscape:connector-curvature="0" />
        </g>
        <path
           inkscape:connector-curvature="0"
           id="rect4612-7-4-2-5"
           d="m 133.17999,61.950809 c -0.92224,-1.149485 -3.15535,-0.879139 -5.00707,0.606503 l -4.91788,3.945633 c -0.6345,0.509059 -1.1356,1.093214 -1.48817,1.686886 -0.93947,0.743474 -0.8713,2.73939 0.20158,4.643578 l 3.02501,5.368285 c 1.13897,2.021476 2.96509,3.149987 4.09433,2.530091 1.12924,-0.619898 1.12121,-2.746399 -0.0178,-4.767869 l -2.84191,-5.043468 c 0.11984,-0.08463 0.2391,-0.173247 0.35651,-0.26745 l 4.91788,-3.945633 c 1.85173,-1.485643 2.59972,-3.607047 1.67748,-4.756536 z"
           style="display:inline;opacity:1;fill:#080000;fill-opacity:1;stroke:#fff3ff;stroke-width:0.94217122;stroke-miterlimit:4;stroke-dasharray:none;stroke-opacity:1" />
        <circle
           style="display:inline;stroke:#fff3ff;stroke-width:0.94217122;stroke-miterlimit:4;stroke-dasharray:none;stroke-opacity:1"
           r="5.1026788"
           cy="57.729942"
           cx="132.39844"
           id="path3727-5" />
        <path
           id="rect4612-7-6"
           transform="scale(0.26458333)"
           d="m 493.56445,231.04297 c -9.14825,0.17175 -17.35041,8.07204 -19.08593,18.97656 l -5.08594,31.95508 c -1.15855,7.27929 0.85219,14.16622 4.8789,18.84375 -3.60212,2.43786 -6.43878,7.29317 -7.27148,13.23828 l -1.95312,13.95117 -12.26563,-8.80273 c -7.79644,-5.59578 -16.63271,-5.75158 -19.8125,-0.34961 -3.17979,5.40197 0.53755,14.25578 8.33398,19.85156 l 20.70508,14.86133 c 7.79644,5.59578 16.63271,5.75158 19.8125,0.34961 0.30436,-0.51706 0.52657,-1.07401 0.70703,-1.64844 1.92977,-2.59046 3.35055,-6.02189 3.89844,-9.93359 l 3.43945,-24.56055 c 0.5657,-4.0388 0.11,-7.89201 -1.10937,-11.03711 8.5462,-0.93466 15.98067,-8.55767 17.62305,-18.87695 l 5.08593,-31.95508 c 1.91506,-12.03257 -4.7899,-23.03151 -15.03515,-24.66211 -0.96049,-0.15287 -1.91887,-0.21894 -2.86524,-0.20117 z"
           style="opacity:1;fill:#000000;fill-opacity:1;stroke:#ffffff;stroke-width:3.56096196;stroke-miterlimit:4;stroke-dasharray:none;stroke-opacity:1"
           inkscape:connector-curvature="0" />
        <path
           inkscape:connector-curvature="0"
           id="rect4612-7-4-2"
           d="m 133.0476,62.050785 c -1.30875,-0.677508 -3.24104,0.474048 -4.33245,2.582324 l -2.89861,5.599251 c -0.37398,0.722409 -0.59557,1.459452 -0.67751,2.145048 -0.55788,1.060245 0.31276,2.857552 2.06489,4.164094 l 4.93991,3.683266 c 1.86005,1.387019 3.98675,1.67929 4.76819,0.65518 0.78144,-1.024112 -0.0871,-2.965171 -1.94714,-4.352187 l -4.64096,-3.460428 c 0.0753,-0.125912 0.14846,-0.255239 0.21766,-0.38892 l 2.89861,-5.599251 c 1.09141,-2.108277 0.91618,-4.350852 -0.39257,-5.028364 z"
           style="opacity:1;fill:#080000;fill-opacity:1;stroke:#fff3ff;stroke-width:0.94217122;stroke-miterlimit:4;stroke-dasharray:none;stroke-opacity:1" />
      </g>
    </g>
  </g>
</svg>
